<?xml version="1.0" encoding="UTF-8"?>
<svg width="593" height="600" viewBox="0 0 593 600" xmlns="http://www.w3.org/2000/svg">
    <rect width="100%" height="100%" fill="white"/>
    <path d="M460.26,60.00L470.79,68.40L477.37,68.41L482.02,72.46L490.38,72.53L496.24,75.50L494.20,80.50L495.85,87.69L495.38,95.40L492.97,99.13L493.92,104.64L496.34,102.65L497.84,107.16L502.72,112.01L510.80,114.74L516.22,112.82L518.86,115.95L522.93,116.34L529.38,126.43L533.46,129.60L533.70,134.20L528.75,138.06L525.37,146.13L519.27,149.10L509.93,155.95L503.02,156.14L494.55,152.66L488.19,161.86L490.18,168.18L490.13,177.61L488.17,178.89L486.01,187.09L490.08,188.88L490.28,192.47L486.53,196.84L482.33,198.24L482.19,208.62L480.22,208.89L478.83,215.52L480.29,217.65L479.09,224.98L476.08,229.37L476.97,235.88L482.81,243.83L488.05,248.21L494.91,246.72L495.83,249.52L500.40,255.33L496.26,258.38L483.00,272.60L482.89,276.29L475.98,284.94L476.52,290.28L472.56,291.69L470.87,295.47L460.24,300.70L460.09,311.10L462.94,313.56L465.07,321.47L464.08,328.13L468.87,332.63L467.72,336.63L463.53,339.56L454.83,336.19L449.23,336.70L444.93,339.35L440.92,335.32L431.95,337.35L430.18,349.12L428.46,350.61L421.15,347.96L415.41,351.15L409.05,350.88L404.30,353.26L394.92,354.49L391.99,353.45L386.51,363.52L388.67,367.32L393.15,369.40L395.04,373.56L394.10,381.27L391.15,383.54L392.16,387.15L389.65,396.36L381.68,404.59L379.94,410.58L388.19,420.55L391.42,416.64L398.31,428.31L394.49,441.60L395.22,447.99L399.68,459.95L396.26,467.69L398.67,474.75L396.98,476.78L397.49,483.14L394.10,486.91L393.11,481.73L388.79,483.09L382.53,481.44L382.78,474.02L372.78,464.71L371.36,459.88L365.50,456.16L364.28,466.33L356.52,472.01L355.18,474.77L348.45,474.61L345.05,477.00L338.18,477.06L338.22,489.64L340.29,492.27L340.81,500.06L331.21,499.31L327.81,505.30L327.78,511.07L330.32,515.37L320.97,517.05L314.00,520.76L307.85,519.29L309.36,525.07L306.98,533.95L302.30,534.86L301.08,538.31L296.47,537.88L288.07,533.30L284.94,539.91L281.52,540.00L279.86,532.88L275.96,530.75L281.44,521.50L278.30,517.58L280.91,509.54L277.44,506.32L273.41,506.10L265.13,499.84L265.81,496.70L260.59,495.85L258.14,489.44L258.78,477.66L254.27,465.88L248.02,466.02L245.65,463.58L238.50,466.32L230.76,467.17L218.21,472.79L215.05,476.61L212.10,485.82L207.58,492.29L204.75,490.70L197.81,494.88L198.18,501.12L196.16,505.90L197.77,508.63L193.28,513.21L192.63,509.44L188.89,505.61L185.75,507.24L179.97,505.97L176.77,509.81L169.90,512.30L159.85,510.73L152.80,516.05L150.51,522.53L145.76,521.44L136.41,516.96L139.96,512.82L138.63,508.08L142.43,503.25L142.26,500.04L138.64,496.74L125.13,494.56L119.05,492.50L113.24,495.12L109.48,493.60L106.73,500.02L109.85,506.56L100.47,518.79L100.19,521.92L92.43,527.40L91.96,529.55L86.04,532.62L83.24,528.93L83.21,521.38L79.22,516.90L79.62,504.83L76.08,500.70L77.14,490.69L75.18,486.14L70.29,486.43L65.81,483.67L59.30,476.86L73.13,472.89L96.63,463.60L99.84,461.02L117.98,455.25L125.33,448.86L130.21,446.64L136.72,441.33L141.46,440.94L145.98,437.93L157.07,425.85L163.69,428.57L171.16,428.97L180.88,427.09L189.12,423.16L205.22,409.42L227.17,387.02L238.17,379.85L249.61,374.71L258.63,361.32L265.19,346.58L277.46,329.94L284.27,325.38L293.31,309.95L297.41,298.11L300.33,286.76L300.38,282.04L307.53,262.16L319.81,248.63L345.11,232.16L356.39,223.27L365.37,218.67L374.48,217.09L386.65,212.60L390.14,209.28L394.68,214.37L392.83,207.87L397.03,206.28L411.04,194.36L421.23,182.19L431.16,166.97L435.07,159.71L435.36,153.30L439.42,144.91L437.40,142.08L439.27,134.14L439.65,111.61L440.47,103.84L443.35,96.05L446.19,92.31L451.77,78.49L460.34,62.62L460.26,60.00Z" fill="black" stroke="black" stroke-width="1"/>
</svg>